<svg xmlns="http://www.w3.org/2000/svg" viewBox="0 0 59.63 59.63"><defs><style>.cls-1{fill:#fff;}.cls-2{fill:#04033a;}</style></defs><g id="Calque_2" data-name="Calque 2"><g id="Calque_1-2" data-name="Calque 1"><circle class="cls-1" cx="29.81" cy="29.81" r="29.81"/><path class="cls-2" d="M29.81,29.81a8.94,8.94,0,1,0-8.94-8.94A8.95,8.95,0,0,0,29.81,29.81Zm6.26,2.24H34.91a12.15,12.15,0,0,1-10.19,0H23.55a9.4,9.4,0,0,0-9.39,9.39v2.91a3.35,3.35,0,0,0,3.36,3.35H42.11a3.36,3.36,0,0,0,3.36-3.35V41.44A9.4,9.4,0,0,0,36.07,32.05Z"/></g></g></svg>