<svg xmlns="http://www.w3.org/2000/svg" viewBox="0 0 45 35"><defs><style>.cls-1{fill:#04033a;opacity:0.4;}</style></defs><g id="Calque_2" data-name="Calque 2"><g id="Calque_1-2" data-name="Calque 1"><path class="cls-1" d="M41.25,0H3.75A3.75,3.75,0,0,0,0,3.75V5H45V3.75A3.75,3.75,0,0,0,41.25,0ZM0,31.25A3.75,3.75,0,0,0,3.75,35h37.5A3.75,3.75,0,0,0,45,31.25V7.5H0ZM27.5,13.13a.63.63,0,0,1,.62-.63H39.37a.63.63,0,0,1,.63.63v1.25a.63.63,0,0,1-.63.62H28.12a.62.62,0,0,1-.62-.62Zm0,5a.63.63,0,0,1,.62-.63H39.37a.63.63,0,0,1,.63.63v1.25a.63.63,0,0,1-.63.62H28.12a.62.62,0,0,1-.62-.62Zm0,5a.63.63,0,0,1,.62-.63H39.37a.63.63,0,0,1,.63.63v1.25a.63.63,0,0,1-.63.62H28.12a.62.62,0,0,1-.62-.62ZM13.75,12.5a5,5,0,1,1-5,5A5,5,0,0,1,13.75,12.5Zm-8.51,16A5,5,0,0,1,10,25h.64a8.11,8.11,0,0,0,6.22,0h.64a5,5,0,0,1,4.76,3.45A1.23,1.23,0,0,1,21,30H6.46A1.24,1.24,0,0,1,5.24,28.45Z"/></g></g></svg>